<svg width="32" height="32" viewBox="0 0 32 32" fill="none" xmlns="http://www.w3.org/2000/svg">
<g clip-path="url(#clip0_197_24)">
<path d="M24 0H8C3.58172 0 0 3.58172 0 8V24C0 28.4183 3.58172 32 8 32H24C28.4183 32 32 28.4183 32 24V8C32 3.58172 28.4183 0 24 0Z" fill="url(#paint0_linear_197_24)"/>
<path d="M10 11.6C10 11.1757 10.158 10.7687 10.4393 10.4686C10.7206 10.1686 11.1022 10 11.5 10H16.75C17.1478 10 17.5294 10.1686 17.8107 10.4686C18.092 10.7687 18.25 11.1757 18.25 11.6V14.8C18.25 15.2243 18.092 15.6313 17.8107 15.9314C17.5294 16.2314 17.1478 16.4 16.75 16.4H15.25L13 18.8V16.4H11.5C11.1022 16.4 10.7206 16.2314 10.4393 15.9314C10.158 15.6313 10 15.2243 10 14.8V11.6Z" fill="#0C2627"/>
<path d="M19.7494 13.2V14.8C19.7494 15.6486 19.4333 16.4626 18.8707 17.0627C18.3081 17.6628 17.545 18 16.7494 18H15.8704L14.5459 19.4136C14.7559 19.5328 14.9951 19.6 15.2494 19.6H16.7494L18.9994 22V19.6H20.4994C20.8972 19.6 21.2788 19.4314 21.5601 19.1313C21.8414 18.8313 21.9994 18.4243 21.9994 18V14.8C21.9994 14.3756 21.8414 13.9686 21.5601 13.6686C21.2788 13.3685 20.8972 13.2 20.4994 13.2H19.7494Z" fill="#0C2627"/>
</g>
<defs>
<linearGradient id="paint0_linear_197_24" x1="3.5" y1="2" x2="29" y2="29.5" gradientUnits="userSpaceOnUse">
<stop stop-color="#FFCF9E"/>
<stop offset="0.545084" stop-color="#FFA957" stop-opacity="0.95"/>
<stop offset="1" stop-color="#DF7B2F"/>
</linearGradient>
<clipPath id="clip0_197_24">
<rect width="32" height="32" fill="white"/>
</clipPath>
</defs>
</svg>
